<svg xmlns="http://www.w3.org/2000/svg" width="1200" height="1200" viewBox="0 0 1200 1200" version="1.1">
	<path d="M 575.630 175.989 C 560.696 177.878, 546.212 182.266, 533 188.902 C 522.956 193.947, 366.701 298.997, 354.689 308.780 C 341.709 319.351, 330.665 333.161, 323.447 347.848 C 306.718 381.886, 308.838 426.865, 328.757 460.500 C 333.092 467.821, 334.428 469.583, 350.168 488.736 C 362.157 503.323, 364.786 508.376, 366.034 519.227 C 366.557 523.777, 366.988 557.087, 366.992 593.250 L 367 659 278.500 659 C 229.825 659, 190 659.237, 190 659.526 C 190 659.816, 203.317 679.632, 219.593 703.562 C 235.870 727.492, 248.955 747.674, 248.672 748.411 C 248.389 749.149, 235.040 769.045, 219.008 792.626 L 189.857 835.500 278.429 835.755 L 367 836.011 366.969 867.755 C 366.952 885.215, 366.503 902.850, 365.972 906.945 C 363.110 928.995, 347.722 942.020, 324.568 941.989 C 306.139 941.964, 292.763 933.408, 286.857 917.866 C 285.760 914.978, 284.244 907.042, 283.489 900.231 C 282.391 890.324, 281.517 886.612, 279.119 881.674 C 275.602 874.433, 274.082 872.576, 267.656 867.671 C 256.543 859.188, 237.180 857.446, 223.775 863.723 C 206.361 871.877, 199.361 887.698, 201.862 913.255 C 205.607 951.525, 223.582 982.369, 254.399 1003.407 C 291.070 1028.442, 341.501 1031.685, 382 1011.612 C 410.141 997.663, 432.936 971.149, 442.293 941.481 C 448.088 923.104, 448.247 921.520, 448.725 877.250 L 449.171 836 470.055 836 L 490.939 836 491.220 895.250 L 491.500 954.500 494.608 961 C 501.986 976.427, 515.240 983.641, 534.707 982.826 C 542.585 982.496, 545.610 981.904, 550.175 979.798 C 560.981 974.812, 568.248 965.825, 571.467 953.465 C 572.756 948.518, 573 938.687, 573 891.790 L 573 836 594 836 L 615 836 615.011 893.250 C 615.022 953.883, 615.051 954.299, 619.818 963.643 C 622.227 968.365, 630.272 976.082, 635.608 978.789 C 645.828 983.974, 664.035 984.444, 674.175 979.786 C 684.920 974.850, 692.367 965.730, 695.639 953.500 C 696.680 949.609, 696.979 936.026, 696.988 892.250 L 697 836 717.932 836 L 738.864 836 739.271 878.250 C 739.713 924.233, 739.899 926.021, 746.091 943.913 C 760.351 985.120, 797.550 1015.743, 842.423 1023.214 C 851.531 1024.730, 874.469 1024.730, 883.577 1023.214 C 940.246 1013.780, 980.899 969.629, 985.954 912.031 C 987.683 892.322, 984.732 880.890, 975.543 871.701 C 966.834 862.992, 956.368 859.415, 941.827 860.178 C 924.152 861.106, 910.591 871.874, 906.137 888.517 C 905.550 890.708, 904.646 897, 904.126 902.500 C 902.940 915.059, 900.201 922.448, 894.300 929.011 C 886.063 938.172, 874.471 942.479, 859.783 941.834 C 852.001 941.492, 849.424 940.923, 843.849 938.312 C 831.669 932.609, 824.127 921.950, 822.047 907.500 C 821.493 903.650, 821.031 885.987, 821.020 868.250 L 821 836 915.500 836 C 967.475 836, 1010 835.779, 1010 835.509 C 1010 835.239, 996.681 815.427, 980.403 791.483 C 964.124 767.539, 951.030 747.365, 951.303 746.652 C 951.577 745.939, 964.895 726.106, 980.900 702.578 C 996.905 679.050, 1010 659.620, 1010 659.400 C 1010 659.180, 967.475 659, 915.500 659 L 821 659 821.006 591.250 C 821.009 553.211, 821.428 520.955, 821.962 517.697 C 823.312 509.456, 826.476 503.761, 834.529 495.078 C 849.215 479.244, 855.939 469.628, 863.609 453.493 C 878.340 422.501, 879.501 387.648, 866.857 356 C 858.765 335.747, 843.388 316.220, 825 302.845 C 806.612 289.470, 656.358 191.570, 648.809 188.046 C 638.964 183.449, 627.519 179.708, 616.531 177.496 C 607.013 175.580, 585.211 174.777, 575.630 175.989 M 584.734 259.027 C 582.663 259.548, 579.063 260.945, 576.734 262.131 C 574.406 263.317, 536.985 287.651, 493.577 316.207 C 450.169 344.764, 413.445 368.753, 411.967 369.517 C 407.465 371.845, 399.973 379.806, 397.924 384.440 C 395.169 390.668, 394.590 396.643, 395.958 404.754 C 397.634 414.690, 401.450 421.948, 411.182 433.717 C 434.459 461.864, 443.818 480.205, 447.555 504.996 C 448.698 512.573, 448.989 529.148, 448.994 586.750 L 449 659 596 659 L 743 659 743 587.724 C 743 545.176, 743.412 513.163, 744.022 508.298 C 747.226 482.745, 757.934 461.082, 780.996 433.500 C 792.071 420.254, 794.742 415.284, 796.214 405.185 L 797.337 397.484 792.069 387.229 C 787.844 379.004, 785.584 375.886, 780.651 371.474 C 773.931 365.465, 620.301 264, 613 260.748 C 607.839 258.450, 591.079 257.429, 584.734 259.027 M 526.293 488.112 C 515.528 489.475, 503.658 497.361, 497.272 507.394 C 491.463 516.519, 489.347 530.165, 492.292 539.500 C 498.454 559.028, 518.805 572.316, 537.743 569.178 C 551.216 566.946, 562.548 558.234, 568.692 545.385 C 577.735 526.473, 571.575 506.230, 553.139 494.273 C 544.956 488.966, 535.922 486.893, 526.293 488.112 M 650.293 488.111 C 639.072 489.533, 626.501 498.238, 620.558 508.701 C 611.309 524.984, 613.784 543.689, 626.926 556.831 C 643.463 573.367, 667.747 573.809, 683.941 557.869 C 701.424 540.659, 701.334 515.932, 683.728 499.313 C 674.438 490.545, 662.541 486.559, 650.293 488.111 M 444 678.353 C 444 679.673, 431.532 783.294, 430.597 789.750 L 430.126 793 437.502 793 L 444.877 793 445.466 788.750 C 446.128 783.963, 459 678.090, 459 677.427 C 459 677.192, 455.625 677, 451.500 677 C 445.862 677, 444 677.336, 444 678.353 M 888 678.078 C 872.146 680.836, 860.978 692.628, 858.486 709.243 L 857.787 713.907 852.143 714.203 L 846.500 714.500 846.185 718.901 C 845.828 723.894, 846.810 724.961, 851.781 724.985 C 853.586 724.993, 855.290 725.593, 855.568 726.318 C 855.846 727.042, 853.807 745.979, 851.037 768.398 C 848.267 790.818, 846 810.025, 846 811.081 C 846 812.642, 846.721 813, 849.865 813 C 856.352 813, 858.520 810.400, 860.924 799.740 C 862.439 793.021, 871 729.951, 871 725.506 C 871 725.228, 877.525 725, 885.500 725 C 895.087 725, 900 725.361, 900 726.065 C 900 726.650, 898.200 741.752, 896 759.623 C 893.800 777.495, 892 792.316, 892 792.559 C 892 792.801, 895.300 793, 899.333 793 L 906.666 793 911.380 754.480 C 913.972 733.294, 915.821 715.519, 915.488 714.980 C 915.122 714.389, 906.337 714, 893.353 714 L 871.824 714 872.470 709.750 C 872.825 707.413, 874.337 703.035, 875.829 700.021 C 879.473 692.666, 885.751 689.326, 897.964 688.247 L 906.429 687.500 907.333 683.669 C 907.845 681.501, 907.860 679.461, 907.369 678.971 C 905.981 677.587, 894.002 677.035, 888 678.078 M 302.263 680.868 C 289.239 685.448, 281.405 694.647, 278.886 708.315 C 277.364 716.575, 278.786 724.024, 282.994 729.834 C 286 733.983, 291.033 736.837, 306.318 743.060 C 315.940 746.978, 319.653 749.998, 321.001 755.003 C 323.406 763.933, 318.402 774.188, 309.521 778.534 C 304.601 780.941, 303.114 781.205, 296.971 780.766 C 289.761 780.250, 285.034 778.038, 278.858 772.291 C 275.250 768.933, 272.409 769.633, 268.677 774.799 C 265.015 779.869, 265.288 780.668, 272.591 786.257 C 280.723 792.481, 286.795 794.250, 298.500 793.806 C 310.216 793.361, 317.002 790.805, 324.285 784.092 C 333.322 775.761, 338.534 760.435, 336.072 749.432 C 333.802 739.287, 327.542 733.994, 309.500 726.963 C 294.848 721.252, 290.315 714.361, 294.548 704.232 C 297.755 696.556, 304.772 692.044, 313.500 692.044 C 318.672 692.044, 325.904 694.697, 329.500 697.913 C 333.198 701.221, 334.983 701.229, 338.043 697.954 C 342.736 692.930, 342.826 691.053, 338.549 687.356 C 331.976 681.674, 326.516 679.689, 316.500 679.340 C 309.693 679.103, 306.224 679.475, 302.263 680.868 M 566.821 688.322 C 566.094 689.049, 564.196 695.012, 562.604 701.572 C 561.012 708.132, 559.212 713.831, 558.605 714.235 C 557.997 714.639, 556.150 714.982, 554.500 714.998 C 548.067 715.060, 547 715.860, 547 720.617 L 547 725 551.833 725 C 554.492 725, 556.877 725.210, 557.133 725.466 C 557.390 725.723, 556.359 735.960, 554.842 748.216 C 551.446 775.667, 551.299 782.338, 553.995 786.759 C 559.282 795.430, 573.294 796.703, 584.178 789.501 L 588.020 786.959 585.887 782.729 C 584.714 780.403, 583.628 778.356, 583.474 778.180 C 583.320 778.004, 581.368 778.792, 579.137 779.930 C 571.322 783.917, 566.671 781.592, 566.835 773.780 C 566.933 769.129, 571.795 728.267, 572.486 726.285 C 572.773 725.465, 576.251 724.978, 583.205 724.785 L 593.500 724.500 593.802 719.250 L 594.105 714 584.052 714 C 575.133 714, 574.004 713.803, 574.032 712.250 C 574.049 711.288, 574.710 705.775, 575.500 700 C 576.290 694.225, 576.951 688.938, 576.968 688.250 C 577.012 686.539, 568.543 686.599, 566.821 688.322 M 386.262 715.027 C 380.565 717.874, 375.178 722.752, 370.397 729.395 L 368.314 732.289 368.785 724.151 C 369.362 714.186, 368.629 713, 361.897 713 C 357.668 713, 356.975 713.292, 356.555 715.250 C 356.044 717.628, 344 817.169, 344 819.012 C 344 819.708, 346.560 819.984, 351.250 819.794 L 358.500 819.500 360.371 803.500 C 361.399 794.700, 362.382 787.342, 362.555 787.149 C 362.727 786.956, 364.361 787.897, 366.184 789.239 C 368.008 790.582, 370.975 792.262, 372.777 792.973 C 377.505 794.837, 388.447 793.837, 393.925 791.040 C 409.435 783.121, 420.891 759.556, 419.733 737.954 C 419.033 724.907, 415.235 717.433, 407.500 713.881 C 401.210 710.992, 393.504 711.408, 386.262 715.027 M 503.628 713.110 C 488.170 716.740, 472.595 732.175, 467.011 749.398 C 463.711 759.576, 464.124 775.431, 467.879 782.732 C 471.906 790.562, 477.547 794, 486.369 794 C 495.213 794, 505.284 787.364, 512.166 777 C 513.767 774.589, 513.806 774.776, 513.271 782.226 C 512.577 791.866, 513.332 793, 520.439 793 L 525.634 793 529.942 757.779 C 532.311 738.407, 534.468 720.930, 534.735 718.941 L 535.220 715.325 529.294 713.663 C 522.902 711.869, 510.087 711.593, 503.628 713.110 M 627 714.158 C 623.015 715.715, 619.558 718.262, 614.448 723.404 C 603.837 734.081, 599.578 744.846, 599.573 761 C 599.569 771.625, 601.721 778.265, 607.176 784.462 C 613.600 791.761, 617.738 793.472, 629 793.487 C 637.502 793.499, 639.131 793.191, 644.500 790.558 C 659.845 783.035, 670 765.142, 670 745.627 C 670 730.992, 663.966 719.611, 653.500 714.503 C 647.409 711.530, 634.164 711.358, 627 714.158 M 710.396 713.418 C 701.853 716.092, 691.233 725.688, 686.509 735 C 679.476 748.865, 678.702 768.170, 684.735 779.254 C 690.461 789.774, 699.730 794.562, 712.899 793.800 C 722.565 793.240, 730.870 789.111, 737.982 781.330 C 747.303 771.131, 751.523 758.498, 750.838 742.843 C 750.498 735.070, 749.931 732.380, 747.651 727.720 C 744.391 721.057, 738.579 715.726, 732.205 713.554 C 726.762 711.700, 716.100 711.633, 710.396 713.418 M 804.994 712.883 C 797.893 715.187, 790.752 720.611, 785.765 727.487 L 782.874 731.475 783.573 723.754 C 784.446 714.123, 783.715 713, 776.577 713 L 771.399 713 767.069 749.250 C 764.687 769.188, 762.513 787.188, 762.238 789.250 L 761.737 793 769.368 793 C 773.566 793, 776.998 792.663, 776.995 792.250 C 776.992 791.837, 777.944 782.725, 779.109 772 C 781.066 753.999, 781.501 751.925, 784.761 745.023 C 792.940 727.710, 808.923 718.913, 815.399 728.159 C 816.451 729.662, 817 732.582, 817 736.681 C 817 742.026, 813.187 777.884, 811.410 789.250 L 810.824 793 818.412 793 C 822.585 793, 826 792.796, 826 792.546 C 826 792.296, 827.390 780.483, 829.088 766.296 C 833.451 729.856, 832.670 721.664, 824.220 715.218 C 821.362 713.038, 819.510 712.506, 814.110 712.310 C 810.475 712.178, 806.372 712.436, 804.994 712.883 M 504.882 724.381 C 492.092 728.951, 482.507 741.534, 480.066 756.960 C 477.515 773.077, 483.648 783.870, 493.739 781.021 C 505.046 777.830, 514.607 761.084, 517.435 739.518 C 519.738 721.954, 519.970 722.992, 513.750 723.044 C 510.863 723.068, 506.872 723.670, 504.882 724.381 M 384.885 726.858 C 375.119 733.051, 367.529 747.461, 365.268 764.099 C 363.881 774.306, 363.896 775.228, 365.478 776.976 C 369.502 781.422, 379.184 783.401, 385.383 781.045 C 395.894 777.048, 405.031 759.007, 404.978 742.356 C 404.927 726.436, 396.184 719.693, 384.885 726.858 M 631.466 725.400 C 613.818 733.089, 607.766 772.622, 623.029 780.515 C 627.906 783.037, 634.936 782.426, 640.318 779.013 C 649.694 773.067, 654.492 761.895, 654.497 746 C 654.501 733.757, 652.690 728.912, 646.965 725.842 C 642.966 723.697, 635.842 723.494, 631.466 725.400 M 712.379 725.532 C 707.847 727.519, 701.386 735.352, 698.985 741.770 C 694.803 752.946, 694.585 767.429, 698.484 774.969 C 703.242 784.171, 717.861 784.368, 726.091 775.342 C 732.784 768, 736.048 758.242, 736.124 745.340 C 736.211 730.879, 731.095 723.920, 720.500 724.085 C 717.750 724.128, 714.095 724.779, 712.379 725.532" stroke="none" fill="#000000" fill-rule="evenodd"/>
</svg>